<svg width="40" height="40" viewBox="0 0 40 40" fill="none" xmlns="http://www.w3.org/2000/svg">
<path d="M25.9393 37.0607C26.5251 37.6464 27.4749 37.6464 28.0607 37.0607C28.6464 36.4749 28.6464 35.5251 28.0607 34.9393L25.9393 37.0607ZM11 20L9.93934 18.9393C9.35355 19.5251 9.35355 20.4749 9.93934 21.0607L11 20ZM28.0607 5.06066C28.6464 4.47487 28.6464 3.52513 28.0607 2.93934C27.4749 2.35355 26.5251 2.35355 25.9393 2.93934L28.0607 5.06066ZM28.0607 34.9393L12.0607 18.9393L9.93934 21.0607L25.9393 37.0607L28.0607 34.9393ZM12.0607 21.0607L28.0607 5.06066L25.9393 2.93934L9.93934 18.9393L12.0607 21.0607Z" fill="#A63A50"/>
</svg>
