<svg width="16" height="28" viewBox="0 0 16 28" fill="none" xmlns="http://www.w3.org/2000/svg">
<path d="M12.9394 26.7273C13.5251 27.3131 14.4749 27.3131 15.0607 26.7273C15.6465 26.1415 15.6465 25.1918 15.0607 24.606L12.9394 26.7273ZM2.33334 14L1.27268 12.9393C0.991379 13.2206 0.833344 13.6022 0.833344 14C0.833344 14.3978 0.991379 14.7794 1.27268 15.0607L2.33334 14ZM15.0607 3.39399C15.6465 2.8082 15.6465 1.85845 15.0607 1.27267C14.4749 0.686882 13.5251 0.686882 12.9394 1.27267L15.0607 3.39399ZM15.0607 24.606L3.394 12.9393L1.27268 15.0607L12.9394 26.7273L15.0607 24.606ZM3.394 15.0607L15.0607 3.39399L12.9394 1.27267L1.27268 12.9393L3.394 15.0607Z" fill="#A63A50"/>
</svg>
