<svg width="138" height="78" viewBox="0 0 138 78" fill="none" xmlns="http://www.w3.org/2000/svg">
<path fill-rule="evenodd" clip-rule="evenodd" d="M69 78C107.108 78 138 60.5391 138 39C138 17.4609 107.108 0 69 0C30.8924 0 0 17.4609 0 39C0 60.5391 30.8924 78 69 78ZM48.78 16.62H43.62V40.56H31.62L39.18 21.6L39 21.54V21.36H34.26V21.54L34.08 21.48L24.48 45.48L24.66 45.54V45.66H43.62V60H48.78V45.66H53.52V40.56H48.78V16.62ZM69 16.62C62.28 16.62 56.88 22.08 56.88 28.74V48.06C56.94 50.58 57.72 52.92 59.1 54.84L56.88 59.76L57.06 59.82V60H61.86V59.82L62.04 59.88L62.76 58.26C64.56 59.34 66.72 60 69 60C75.72 60 81.12 54.6 81.12 47.88V28.74C81.12 26.16 80.28 23.76 78.9 21.78L81.12 16.86L80.94 16.74V16.62H76.2V16.74L76.08 16.68L75.3 18.36C73.5 17.28 71.34 16.62 69 16.62ZM69 21.72C70.56 21.72 72.06 22.26 73.2 23.1L62.04 48.24V28.56C62.1 24.78 65.22 21.72 69 21.72ZM64.86 53.46L76.02 28.26C76.02 28.3139 76.0321 28.38 76.0455 28.4527C76.0618 28.5418 76.08 28.6409 76.08 28.74V48.06C75.96 51.84 72.84 54.84 69 54.84C67.44 54.84 66 54.36 64.86 53.46ZM103.62 16.62H108.78V40.56H113.52V45.66H108.78V60H103.62V45.66H84.66V45.54L84.48 45.48L94.08 21.48L94.26 21.54V21.36H99V21.54L99.18 21.6L91.62 40.56H103.62V16.62Z" fill="#F3D449"/>
</svg>
